<mxfile host="Electron" agent="Mozilla/5.0 (X11; Linux x86_64) AppleWebKit/537.36 (KHTML, like Gecko) draw.io/24.7.5 Chrome/126.0.6478.183 Electron/31.3.0 Safari/537.36" version="24.7.5">
  <diagram name="Page-1" id="BgCCRp1D2u9w_pI-Ji5X">
    <mxGraphModel dx="3654" dy="2297" grid="1" gridSize="10" guides="1" tooltips="1" connect="1" arrows="1" fold="1" page="1" pageScale="1" pageWidth="850" pageHeight="1100" math="0" shadow="0">
      <root>
        <mxCell id="0" />
        <mxCell id="1" parent="0" />
        <mxCell id="FTCC09_lMXSUe1NoiAsB-120" value="" style="rounded=0;whiteSpace=wrap;html=1;fillColor=none;" vertex="1" parent="1">
          <mxGeometry x="-1700" y="-275" width="2830" height="1120" as="geometry" />
        </mxCell>
        <mxCell id="FTCC09_lMXSUe1NoiAsB-41" value="Directory - &quot;Dir1&quot;" style="shape=table;startSize=30;container=1;collapsible=0;childLayout=tableLayout;strokeColor=default;fontSize=16;" vertex="1" parent="1">
          <mxGeometry x="-800" y="60" width="610" height="390" as="geometry" />
        </mxCell>
        <mxCell id="FTCC09_lMXSUe1NoiAsB-42" value="" style="shape=tableRow;horizontal=0;startSize=0;swimlaneHead=0;swimlaneBody=0;strokeColor=inherit;top=0;left=0;bottom=0;right=0;collapsible=0;dropTarget=0;fillColor=none;points=[[0,0.5],[1,0.5]];portConstraint=eastwest;fontSize=16;" vertex="1" parent="FTCC09_lMXSUe1NoiAsB-41">
          <mxGeometry y="30" width="610" height="40" as="geometry" />
        </mxCell>
        <mxCell id="FTCC09_lMXSUe1NoiAsB-43" value="Dentry" style="shape=partialRectangle;html=1;whiteSpace=wrap;connectable=0;strokeColor=inherit;overflow=hidden;fillColor=none;top=0;left=0;bottom=0;right=0;pointerEvents=1;fontSize=16;" vertex="1" parent="FTCC09_lMXSUe1NoiAsB-42">
          <mxGeometry width="230" height="40" as="geometry">
            <mxRectangle width="230" height="40" as="alternateBounds" />
          </mxGeometry>
        </mxCell>
        <mxCell id="FTCC09_lMXSUe1NoiAsB-44" value="Inode" style="shape=partialRectangle;html=1;whiteSpace=wrap;connectable=0;strokeColor=inherit;overflow=hidden;fillColor=none;top=0;left=0;bottom=0;right=0;pointerEvents=1;fontSize=16;" vertex="1" parent="FTCC09_lMXSUe1NoiAsB-42">
          <mxGeometry x="230" width="380" height="40" as="geometry">
            <mxRectangle width="380" height="40" as="alternateBounds" />
          </mxGeometry>
        </mxCell>
        <mxCell id="FTCC09_lMXSUe1NoiAsB-46" value="" style="shape=tableRow;horizontal=0;startSize=0;swimlaneHead=0;swimlaneBody=0;strokeColor=inherit;top=0;left=0;bottom=0;right=0;collapsible=0;dropTarget=0;fillColor=none;points=[[0,0.5],[1,0.5]];portConstraint=eastwest;fontSize=16;" vertex="1" parent="FTCC09_lMXSUe1NoiAsB-41">
          <mxGeometry y="70" width="610" height="110" as="geometry" />
        </mxCell>
        <mxCell id="FTCC09_lMXSUe1NoiAsB-47" value="&quot;.&quot;" style="shape=partialRectangle;html=1;whiteSpace=wrap;connectable=0;strokeColor=inherit;overflow=hidden;fillColor=none;top=0;left=0;bottom=0;right=0;pointerEvents=1;fontSize=16;" vertex="1" parent="FTCC09_lMXSUe1NoiAsB-46">
          <mxGeometry width="230" height="110" as="geometry">
            <mxRectangle width="230" height="110" as="alternateBounds" />
          </mxGeometry>
        </mxCell>
        <mxCell id="FTCC09_lMXSUe1NoiAsB-48" value="// Inode of &quot;Dir1&quot;&lt;br&gt;struct inode {&lt;br&gt;Inode_number = 89&lt;br&gt;&lt;div style=&quot;&quot;&gt;&lt;span style=&quot;background-color: initial;&quot;&gt;.....&lt;/span&gt;&lt;/div&gt;}" style="shape=partialRectangle;html=1;whiteSpace=wrap;connectable=0;strokeColor=inherit;overflow=hidden;fillColor=none;top=0;left=0;bottom=0;right=0;pointerEvents=1;fontSize=16;align=left;" vertex="1" parent="FTCC09_lMXSUe1NoiAsB-46">
          <mxGeometry x="230" width="380" height="110" as="geometry">
            <mxRectangle width="380" height="110" as="alternateBounds" />
          </mxGeometry>
        </mxCell>
        <mxCell id="FTCC09_lMXSUe1NoiAsB-50" value="" style="shape=tableRow;horizontal=0;startSize=0;swimlaneHead=0;swimlaneBody=0;strokeColor=inherit;top=0;left=0;bottom=0;right=0;collapsible=0;dropTarget=0;fillColor=none;points=[[0,0.5],[1,0.5]];portConstraint=eastwest;fontSize=16;" vertex="1" parent="FTCC09_lMXSUe1NoiAsB-41">
          <mxGeometry y="180" width="610" height="40" as="geometry" />
        </mxCell>
        <mxCell id="FTCC09_lMXSUe1NoiAsB-51" value="&quot;..&quot;" style="shape=partialRectangle;html=1;whiteSpace=wrap;connectable=0;strokeColor=inherit;overflow=hidden;fillColor=none;top=0;left=0;bottom=0;right=0;pointerEvents=1;fontSize=16;" vertex="1" parent="FTCC09_lMXSUe1NoiAsB-50">
          <mxGeometry width="230" height="40" as="geometry">
            <mxRectangle width="230" height="40" as="alternateBounds" />
          </mxGeometry>
        </mxCell>
        <mxCell id="FTCC09_lMXSUe1NoiAsB-52" value="&amp;lt;Parent Inode Reference&amp;gt;" style="shape=partialRectangle;html=1;whiteSpace=wrap;connectable=0;strokeColor=inherit;overflow=hidden;fillColor=none;top=0;left=0;bottom=0;right=0;pointerEvents=1;fontSize=16;" vertex="1" parent="FTCC09_lMXSUe1NoiAsB-50">
          <mxGeometry x="230" width="380" height="40" as="geometry">
            <mxRectangle width="380" height="40" as="alternateBounds" />
          </mxGeometry>
        </mxCell>
        <mxCell id="FTCC09_lMXSUe1NoiAsB-54" style="shape=tableRow;horizontal=0;startSize=0;swimlaneHead=0;swimlaneBody=0;strokeColor=inherit;top=0;left=0;bottom=0;right=0;collapsible=0;dropTarget=0;fillColor=none;points=[[0,0.5],[1,0.5]];portConstraint=eastwest;fontSize=16;" vertex="1" parent="FTCC09_lMXSUe1NoiAsB-41">
          <mxGeometry y="220" width="610" height="130" as="geometry" />
        </mxCell>
        <mxCell id="FTCC09_lMXSUe1NoiAsB-55" value="&quot;File1&quot;" style="shape=partialRectangle;html=1;whiteSpace=wrap;connectable=0;strokeColor=inherit;overflow=hidden;fillColor=none;top=0;left=0;bottom=0;right=0;pointerEvents=1;fontSize=16;" vertex="1" parent="FTCC09_lMXSUe1NoiAsB-54">
          <mxGeometry width="230" height="130" as="geometry">
            <mxRectangle width="230" height="130" as="alternateBounds" />
          </mxGeometry>
        </mxCell>
        <mxCell id="FTCC09_lMXSUe1NoiAsB-56" value="&lt;span style=&quot;&quot;&gt;// Inode of &quot;File1&quot;&lt;br&gt;struct inode {&lt;/span&gt;&lt;br style=&quot;&quot;&gt;&lt;span style=&quot;&quot;&gt;Inode_number = 100&lt;/span&gt;&lt;br style=&quot;&quot;&gt;&lt;div style=&quot;&quot;&gt;&lt;span style=&quot;background-color: initial;&quot;&gt;.....&lt;/span&gt;&lt;/div&gt;&lt;span style=&quot;&quot;&gt;}&lt;/span&gt;" style="shape=partialRectangle;html=1;whiteSpace=wrap;connectable=0;strokeColor=inherit;overflow=hidden;fillColor=none;top=0;left=0;bottom=0;right=0;pointerEvents=1;fontSize=16;align=left;" vertex="1" parent="FTCC09_lMXSUe1NoiAsB-54">
          <mxGeometry x="230" width="380" height="130" as="geometry">
            <mxRectangle width="380" height="130" as="alternateBounds" />
          </mxGeometry>
        </mxCell>
        <mxCell id="FTCC09_lMXSUe1NoiAsB-58" style="shape=tableRow;horizontal=0;startSize=0;swimlaneHead=0;swimlaneBody=0;strokeColor=inherit;top=0;left=0;bottom=0;right=0;collapsible=0;dropTarget=0;fillColor=none;points=[[0,0.5],[1,0.5]];portConstraint=eastwest;fontSize=16;" vertex="1" parent="FTCC09_lMXSUe1NoiAsB-41">
          <mxGeometry y="350" width="610" height="40" as="geometry" />
        </mxCell>
        <mxCell id="FTCC09_lMXSUe1NoiAsB-59" value="&quot;Dir2&quot;" style="shape=partialRectangle;html=1;whiteSpace=wrap;connectable=0;strokeColor=inherit;overflow=hidden;fillColor=none;top=0;left=0;bottom=0;right=0;pointerEvents=1;fontSize=16;" vertex="1" parent="FTCC09_lMXSUe1NoiAsB-58">
          <mxGeometry width="230" height="40" as="geometry">
            <mxRectangle width="230" height="40" as="alternateBounds" />
          </mxGeometry>
        </mxCell>
        <mxCell id="FTCC09_lMXSUe1NoiAsB-60" value="&amp;lt;Dir1 Inode Reference&amp;gt;" style="shape=partialRectangle;html=1;whiteSpace=wrap;connectable=0;strokeColor=inherit;overflow=hidden;fillColor=none;top=0;left=0;bottom=0;right=0;pointerEvents=1;fontSize=16;" vertex="1" parent="FTCC09_lMXSUe1NoiAsB-58">
          <mxGeometry x="230" width="380" height="40" as="geometry">
            <mxRectangle width="380" height="40" as="alternateBounds" />
          </mxGeometry>
        </mxCell>
        <mxCell id="FTCC09_lMXSUe1NoiAsB-63" value="File - inode number &quot;100&quot;" style="shape=table;startSize=30;container=1;collapsible=0;childLayout=tableLayout;strokeColor=default;fontSize=16;" vertex="1" parent="1">
          <mxGeometry x="-142" y="520" width="420" height="237" as="geometry" />
        </mxCell>
        <mxCell id="FTCC09_lMXSUe1NoiAsB-64" value="" style="shape=tableRow;horizontal=0;startSize=0;swimlaneHead=0;swimlaneBody=0;strokeColor=inherit;top=0;left=0;bottom=0;right=0;collapsible=0;dropTarget=0;fillColor=none;points=[[0,0.5],[1,0.5]];portConstraint=eastwest;fontSize=16;" vertex="1" parent="FTCC09_lMXSUe1NoiAsB-63">
          <mxGeometry y="30" width="420" height="103" as="geometry" />
        </mxCell>
        <mxCell id="FTCC09_lMXSUe1NoiAsB-65" value="&lt;br&gt;Data Block 0 is used for this list.&lt;br&gt;&amp;lt;Parent_inode_list&amp;gt;&lt;br&gt;Parent_inode=89 &amp;amp; Dentry_name= &quot;File1&quot;&lt;br&gt;Parent_inode=90 &amp;amp; Dentry_name=&quot;File2&quot;" style="shape=partialRectangle;html=1;whiteSpace=wrap;connectable=0;strokeColor=inherit;overflow=hidden;fillColor=none;top=0;left=0;bottom=0;right=0;pointerEvents=1;fontSize=16;" vertex="1" parent="FTCC09_lMXSUe1NoiAsB-64">
          <mxGeometry width="420" height="103" as="geometry">
            <mxRectangle width="420" height="103" as="alternateBounds" />
          </mxGeometry>
        </mxCell>
        <mxCell id="FTCC09_lMXSUe1NoiAsB-68" value="" style="shape=tableRow;horizontal=0;startSize=0;swimlaneHead=0;swimlaneBody=0;strokeColor=inherit;top=0;left=0;bottom=0;right=0;collapsible=0;dropTarget=0;fillColor=none;points=[[0,0.5],[1,0.5]];portConstraint=eastwest;fontSize=16;" vertex="1" parent="FTCC09_lMXSUe1NoiAsB-63">
          <mxGeometry y="133" width="420" height="104" as="geometry" />
        </mxCell>
        <mxCell id="FTCC09_lMXSUe1NoiAsB-69" value="Data Block 1" style="shape=partialRectangle;html=1;whiteSpace=wrap;connectable=0;strokeColor=inherit;overflow=hidden;fillColor=none;top=0;left=0;bottom=0;right=0;pointerEvents=1;fontSize=16;" vertex="1" parent="FTCC09_lMXSUe1NoiAsB-68">
          <mxGeometry width="420" height="104" as="geometry">
            <mxRectangle width="420" height="104" as="alternateBounds" />
          </mxGeometry>
        </mxCell>
        <mxCell id="FTCC09_lMXSUe1NoiAsB-76" value="Directory - &quot;Dir3&quot;" style="shape=table;startSize=30;container=1;collapsible=0;childLayout=tableLayout;strokeColor=default;fontSize=16;" vertex="1" parent="1">
          <mxGeometry x="290" y="50" width="610" height="350" as="geometry" />
        </mxCell>
        <mxCell id="FTCC09_lMXSUe1NoiAsB-77" value="" style="shape=tableRow;horizontal=0;startSize=0;swimlaneHead=0;swimlaneBody=0;strokeColor=inherit;top=0;left=0;bottom=0;right=0;collapsible=0;dropTarget=0;fillColor=none;points=[[0,0.5],[1,0.5]];portConstraint=eastwest;fontSize=16;" vertex="1" parent="FTCC09_lMXSUe1NoiAsB-76">
          <mxGeometry y="30" width="610" height="40" as="geometry" />
        </mxCell>
        <mxCell id="FTCC09_lMXSUe1NoiAsB-78" value="Dentry" style="shape=partialRectangle;html=1;whiteSpace=wrap;connectable=0;strokeColor=inherit;overflow=hidden;fillColor=none;top=0;left=0;bottom=0;right=0;pointerEvents=1;fontSize=16;" vertex="1" parent="FTCC09_lMXSUe1NoiAsB-77">
          <mxGeometry width="230" height="40" as="geometry">
            <mxRectangle width="230" height="40" as="alternateBounds" />
          </mxGeometry>
        </mxCell>
        <mxCell id="FTCC09_lMXSUe1NoiAsB-79" value="Inode" style="shape=partialRectangle;html=1;whiteSpace=wrap;connectable=0;strokeColor=inherit;overflow=hidden;fillColor=none;top=0;left=0;bottom=0;right=0;pointerEvents=1;fontSize=16;" vertex="1" parent="FTCC09_lMXSUe1NoiAsB-77">
          <mxGeometry x="230" width="380" height="40" as="geometry">
            <mxRectangle width="380" height="40" as="alternateBounds" />
          </mxGeometry>
        </mxCell>
        <mxCell id="FTCC09_lMXSUe1NoiAsB-80" value="" style="shape=tableRow;horizontal=0;startSize=0;swimlaneHead=0;swimlaneBody=0;strokeColor=inherit;top=0;left=0;bottom=0;right=0;collapsible=0;dropTarget=0;fillColor=none;points=[[0,0.5],[1,0.5]];portConstraint=eastwest;fontSize=16;" vertex="1" parent="FTCC09_lMXSUe1NoiAsB-76">
          <mxGeometry y="70" width="610" height="110" as="geometry" />
        </mxCell>
        <mxCell id="FTCC09_lMXSUe1NoiAsB-81" value="&quot;.&quot;" style="shape=partialRectangle;html=1;whiteSpace=wrap;connectable=0;strokeColor=inherit;overflow=hidden;fillColor=none;top=0;left=0;bottom=0;right=0;pointerEvents=1;fontSize=16;" vertex="1" parent="FTCC09_lMXSUe1NoiAsB-80">
          <mxGeometry width="230" height="110" as="geometry">
            <mxRectangle width="230" height="110" as="alternateBounds" />
          </mxGeometry>
        </mxCell>
        <mxCell id="FTCC09_lMXSUe1NoiAsB-82" value="// Inode of &quot;Dir3&quot;&lt;br&gt;struct inode {&lt;br&gt;Inode_number = 90&lt;br&gt;&lt;div style=&quot;&quot;&gt;&lt;span style=&quot;background-color: initial;&quot;&gt;.....&lt;/span&gt;&lt;/div&gt;}" style="shape=partialRectangle;html=1;whiteSpace=wrap;connectable=0;strokeColor=inherit;overflow=hidden;fillColor=none;top=0;left=0;bottom=0;right=0;pointerEvents=1;fontSize=16;align=left;" vertex="1" parent="FTCC09_lMXSUe1NoiAsB-80">
          <mxGeometry x="230" width="380" height="110" as="geometry">
            <mxRectangle width="380" height="110" as="alternateBounds" />
          </mxGeometry>
        </mxCell>
        <mxCell id="FTCC09_lMXSUe1NoiAsB-83" value="" style="shape=tableRow;horizontal=0;startSize=0;swimlaneHead=0;swimlaneBody=0;strokeColor=inherit;top=0;left=0;bottom=0;right=0;collapsible=0;dropTarget=0;fillColor=none;points=[[0,0.5],[1,0.5]];portConstraint=eastwest;fontSize=16;" vertex="1" parent="FTCC09_lMXSUe1NoiAsB-76">
          <mxGeometry y="180" width="610" height="40" as="geometry" />
        </mxCell>
        <mxCell id="FTCC09_lMXSUe1NoiAsB-84" value="&quot;..&quot;" style="shape=partialRectangle;html=1;whiteSpace=wrap;connectable=0;strokeColor=inherit;overflow=hidden;fillColor=none;top=0;left=0;bottom=0;right=0;pointerEvents=1;fontSize=16;" vertex="1" parent="FTCC09_lMXSUe1NoiAsB-83">
          <mxGeometry width="230" height="40" as="geometry">
            <mxRectangle width="230" height="40" as="alternateBounds" />
          </mxGeometry>
        </mxCell>
        <mxCell id="FTCC09_lMXSUe1NoiAsB-85" value="&amp;lt;Parent Inode Reference&amp;gt;" style="shape=partialRectangle;html=1;whiteSpace=wrap;connectable=0;strokeColor=inherit;overflow=hidden;fillColor=none;top=0;left=0;bottom=0;right=0;pointerEvents=1;fontSize=16;" vertex="1" parent="FTCC09_lMXSUe1NoiAsB-83">
          <mxGeometry x="230" width="380" height="40" as="geometry">
            <mxRectangle width="380" height="40" as="alternateBounds" />
          </mxGeometry>
        </mxCell>
        <mxCell id="FTCC09_lMXSUe1NoiAsB-86" style="shape=tableRow;horizontal=0;startSize=0;swimlaneHead=0;swimlaneBody=0;strokeColor=inherit;top=0;left=0;bottom=0;right=0;collapsible=0;dropTarget=0;fillColor=none;points=[[0,0.5],[1,0.5]];portConstraint=eastwest;fontSize=16;" vertex="1" parent="FTCC09_lMXSUe1NoiAsB-76">
          <mxGeometry y="220" width="610" height="130" as="geometry" />
        </mxCell>
        <mxCell id="FTCC09_lMXSUe1NoiAsB-87" value="&quot;File2&quot;" style="shape=partialRectangle;html=1;whiteSpace=wrap;connectable=0;strokeColor=inherit;overflow=hidden;fillColor=none;top=0;left=0;bottom=0;right=0;pointerEvents=1;fontSize=16;" vertex="1" parent="FTCC09_lMXSUe1NoiAsB-86">
          <mxGeometry width="230" height="130" as="geometry">
            <mxRectangle width="230" height="130" as="alternateBounds" />
          </mxGeometry>
        </mxCell>
        <mxCell id="FTCC09_lMXSUe1NoiAsB-88" value="&amp;lt;Inode_reference&amp;gt;" style="shape=partialRectangle;html=1;whiteSpace=wrap;connectable=0;strokeColor=inherit;overflow=hidden;fillColor=none;top=0;left=0;bottom=0;right=0;pointerEvents=1;fontSize=16;align=left;" vertex="1" parent="FTCC09_lMXSUe1NoiAsB-86">
          <mxGeometry x="230" width="380" height="130" as="geometry">
            <mxRectangle width="380" height="130" as="alternateBounds" />
          </mxGeometry>
        </mxCell>
        <mxCell id="FTCC09_lMXSUe1NoiAsB-92" style="edgeStyle=orthogonalEdgeStyle;rounded=0;orthogonalLoop=1;jettySize=auto;html=1;entryX=0.576;entryY=0;entryDx=0;entryDy=0;entryPerimeter=0;startArrow=classic;startFill=1;" edge="1" parent="1" source="FTCC09_lMXSUe1NoiAsB-86" target="FTCC09_lMXSUe1NoiAsB-63">
          <mxGeometry relative="1" as="geometry" />
        </mxCell>
        <mxCell id="FTCC09_lMXSUe1NoiAsB-93" style="edgeStyle=orthogonalEdgeStyle;rounded=0;orthogonalLoop=1;jettySize=auto;html=1;entryX=0.352;entryY=0.006;entryDx=0;entryDy=0;entryPerimeter=0;startArrow=classic;startFill=1;" edge="1" parent="1" source="FTCC09_lMXSUe1NoiAsB-54" target="FTCC09_lMXSUe1NoiAsB-63">
          <mxGeometry relative="1" as="geometry" />
        </mxCell>
        <mxCell id="FTCC09_lMXSUe1NoiAsB-94" value="HardLink" style="text;html=1;align=center;verticalAlign=middle;whiteSpace=wrap;rounded=0;" vertex="1" parent="1">
          <mxGeometry x="-110" y="310" width="60" height="30" as="geometry" />
        </mxCell>
        <mxCell id="FTCC09_lMXSUe1NoiAsB-95" value="HardLink" style="text;html=1;align=center;verticalAlign=middle;whiteSpace=wrap;rounded=0;" vertex="1" parent="1">
          <mxGeometry x="170" y="300" width="60" height="30" as="geometry" />
        </mxCell>
        <mxCell id="FTCC09_lMXSUe1NoiAsB-96" value="Directory - &quot;Dir2&quot;" style="shape=table;startSize=30;container=1;collapsible=0;childLayout=tableLayout;strokeColor=default;fontSize=16;" vertex="1" parent="1">
          <mxGeometry x="-1610" y="510" width="610" height="220" as="geometry" />
        </mxCell>
        <mxCell id="FTCC09_lMXSUe1NoiAsB-97" value="" style="shape=tableRow;horizontal=0;startSize=0;swimlaneHead=0;swimlaneBody=0;strokeColor=inherit;top=0;left=0;bottom=0;right=0;collapsible=0;dropTarget=0;fillColor=none;points=[[0,0.5],[1,0.5]];portConstraint=eastwest;fontSize=16;" vertex="1" parent="FTCC09_lMXSUe1NoiAsB-96">
          <mxGeometry y="30" width="610" height="40" as="geometry" />
        </mxCell>
        <mxCell id="FTCC09_lMXSUe1NoiAsB-98" value="Dentry" style="shape=partialRectangle;html=1;whiteSpace=wrap;connectable=0;strokeColor=inherit;overflow=hidden;fillColor=none;top=0;left=0;bottom=0;right=0;pointerEvents=1;fontSize=16;" vertex="1" parent="FTCC09_lMXSUe1NoiAsB-97">
          <mxGeometry width="230" height="40" as="geometry">
            <mxRectangle width="230" height="40" as="alternateBounds" />
          </mxGeometry>
        </mxCell>
        <mxCell id="FTCC09_lMXSUe1NoiAsB-99" value="Inode" style="shape=partialRectangle;html=1;whiteSpace=wrap;connectable=0;strokeColor=inherit;overflow=hidden;fillColor=none;top=0;left=0;bottom=0;right=0;pointerEvents=1;fontSize=16;" vertex="1" parent="FTCC09_lMXSUe1NoiAsB-97">
          <mxGeometry x="230" width="380" height="40" as="geometry">
            <mxRectangle width="380" height="40" as="alternateBounds" />
          </mxGeometry>
        </mxCell>
        <mxCell id="FTCC09_lMXSUe1NoiAsB-100" value="" style="shape=tableRow;horizontal=0;startSize=0;swimlaneHead=0;swimlaneBody=0;strokeColor=inherit;top=0;left=0;bottom=0;right=0;collapsible=0;dropTarget=0;fillColor=none;points=[[0,0.5],[1,0.5]];portConstraint=eastwest;fontSize=16;" vertex="1" parent="FTCC09_lMXSUe1NoiAsB-96">
          <mxGeometry y="70" width="610" height="110" as="geometry" />
        </mxCell>
        <mxCell id="FTCC09_lMXSUe1NoiAsB-101" value="&quot;.&quot;" style="shape=partialRectangle;html=1;whiteSpace=wrap;connectable=0;strokeColor=inherit;overflow=hidden;fillColor=none;top=0;left=0;bottom=0;right=0;pointerEvents=1;fontSize=16;" vertex="1" parent="FTCC09_lMXSUe1NoiAsB-100">
          <mxGeometry width="230" height="110" as="geometry">
            <mxRectangle width="230" height="110" as="alternateBounds" />
          </mxGeometry>
        </mxCell>
        <mxCell id="FTCC09_lMXSUe1NoiAsB-102" value="// Inode of &quot;Dir2&quot;&lt;br&gt;struct inode {&lt;br&gt;Inode_number = 120&lt;br&gt;&lt;div style=&quot;&quot;&gt;&lt;span style=&quot;background-color: initial;&quot;&gt;.....&lt;/span&gt;&lt;/div&gt;}" style="shape=partialRectangle;html=1;whiteSpace=wrap;connectable=0;strokeColor=inherit;overflow=hidden;fillColor=none;top=0;left=0;bottom=0;right=0;pointerEvents=1;fontSize=16;align=left;" vertex="1" parent="FTCC09_lMXSUe1NoiAsB-100">
          <mxGeometry x="230" width="380" height="110" as="geometry">
            <mxRectangle width="380" height="110" as="alternateBounds" />
          </mxGeometry>
        </mxCell>
        <mxCell id="FTCC09_lMXSUe1NoiAsB-103" value="" style="shape=tableRow;horizontal=0;startSize=0;swimlaneHead=0;swimlaneBody=0;strokeColor=inherit;top=0;left=0;bottom=0;right=0;collapsible=0;dropTarget=0;fillColor=none;points=[[0,0.5],[1,0.5]];portConstraint=eastwest;fontSize=16;" vertex="1" parent="FTCC09_lMXSUe1NoiAsB-96">
          <mxGeometry y="180" width="610" height="40" as="geometry" />
        </mxCell>
        <mxCell id="FTCC09_lMXSUe1NoiAsB-104" value="&quot;..&quot;" style="shape=partialRectangle;html=1;whiteSpace=wrap;connectable=0;strokeColor=inherit;overflow=hidden;fillColor=none;top=0;left=0;bottom=0;right=0;pointerEvents=1;fontSize=16;" vertex="1" parent="FTCC09_lMXSUe1NoiAsB-103">
          <mxGeometry width="230" height="40" as="geometry">
            <mxRectangle width="230" height="40" as="alternateBounds" />
          </mxGeometry>
        </mxCell>
        <mxCell id="FTCC09_lMXSUe1NoiAsB-105" value="&amp;lt;Parent Inode Reference&amp;gt;" style="shape=partialRectangle;html=1;whiteSpace=wrap;connectable=0;strokeColor=inherit;overflow=hidden;fillColor=none;top=0;left=0;bottom=0;right=0;pointerEvents=1;fontSize=16;" vertex="1" parent="FTCC09_lMXSUe1NoiAsB-103">
          <mxGeometry x="230" width="380" height="40" as="geometry">
            <mxRectangle width="380" height="40" as="alternateBounds" />
          </mxGeometry>
        </mxCell>
        <mxCell id="FTCC09_lMXSUe1NoiAsB-109" style="edgeStyle=orthogonalEdgeStyle;rounded=0;orthogonalLoop=1;jettySize=auto;html=1;entryX=1;entryY=0.5;entryDx=0;entryDy=0;" edge="1" parent="1" source="FTCC09_lMXSUe1NoiAsB-58" target="FTCC09_lMXSUe1NoiAsB-100">
          <mxGeometry relative="1" as="geometry">
            <mxPoint x="-950" y="650" as="targetPoint" />
          </mxGeometry>
        </mxCell>
        <mxCell id="FTCC09_lMXSUe1NoiAsB-111" style="edgeStyle=orthogonalEdgeStyle;rounded=0;orthogonalLoop=1;jettySize=auto;html=1;entryX=0;entryY=0.033;entryDx=0;entryDy=0;entryPerimeter=0;" edge="1" parent="1" source="FTCC09_lMXSUe1NoiAsB-103" target="FTCC09_lMXSUe1NoiAsB-41">
          <mxGeometry relative="1" as="geometry">
            <Array as="points">
              <mxPoint x="-1650" y="710" />
              <mxPoint x="-1650" y="73" />
            </Array>
          </mxGeometry>
        </mxCell>
        <mxCell id="FTCC09_lMXSUe1NoiAsB-112" value="HardLink" style="text;html=1;align=center;verticalAlign=middle;whiteSpace=wrap;rounded=0;" vertex="1" parent="1">
          <mxGeometry x="-960" y="440" width="60" height="30" as="geometry" />
        </mxCell>
        <mxCell id="FTCC09_lMXSUe1NoiAsB-113" value="Parent Reference" style="text;html=1;align=center;verticalAlign=middle;whiteSpace=wrap;rounded=0;" vertex="1" parent="1">
          <mxGeometry x="-1650" y="270" width="60" height="30" as="geometry" />
        </mxCell>
        <mxCell id="FTCC09_lMXSUe1NoiAsB-114" value="&lt;font style=&quot;font-size: 17px;&quot;&gt;DAOS Mult-Key Object&amp;nbsp;&amp;nbsp;&lt;/font&gt;" style="text;html=1;align=center;verticalAlign=middle;whiteSpace=wrap;rounded=0;" vertex="1" parent="1">
          <mxGeometry x="-1420" y="480" width="260" height="30" as="geometry" />
        </mxCell>
        <mxCell id="FTCC09_lMXSUe1NoiAsB-115" value="&lt;font style=&quot;font-size: 17px;&quot;&gt;DAOS Mult-Key Object&amp;nbsp;&amp;nbsp;&lt;/font&gt;" style="text;html=1;align=center;verticalAlign=middle;whiteSpace=wrap;rounded=0;" vertex="1" parent="1">
          <mxGeometry x="-610" y="30" width="260" height="30" as="geometry" />
        </mxCell>
        <mxCell id="FTCC09_lMXSUe1NoiAsB-116" value="&lt;font style=&quot;font-size: 17px;&quot;&gt;DAOS Mult-Key Object&amp;nbsp;&amp;nbsp;&lt;/font&gt;" style="text;html=1;align=center;verticalAlign=middle;whiteSpace=wrap;rounded=0;" vertex="1" parent="1">
          <mxGeometry x="500" y="20" width="260" height="30" as="geometry" />
        </mxCell>
        <mxCell id="FTCC09_lMXSUe1NoiAsB-117" value="&lt;font style=&quot;font-size: 17px;&quot;&gt;DAOS Array Object&amp;nbsp;&amp;nbsp;&lt;/font&gt;" style="text;html=1;align=center;verticalAlign=middle;whiteSpace=wrap;rounded=0;" vertex="1" parent="1">
          <mxGeometry x="100" y="490" width="260" height="30" as="geometry" />
        </mxCell>
        <mxCell id="FTCC09_lMXSUe1NoiAsB-118" value="&lt;font style=&quot;font-size: 19px;&quot;&gt;Here, Dir1 is the primary parent and Dir2 is secondary parent&lt;/font&gt;" style="text;html=1;align=center;verticalAlign=middle;whiteSpace=wrap;rounded=0;" vertex="1" parent="1">
          <mxGeometry x="290" y="570" width="290" height="80" as="geometry" />
        </mxCell>
        <mxCell id="FTCC09_lMXSUe1NoiAsB-119" value="&lt;font size=&quot;1&quot; style=&quot;&quot;&gt;&lt;b style=&quot;font-size: 28px;&quot;&gt;This scheme is to optimize primary directories having large number of files, which is usually the case. In this way readdir benefits from reading directly, becasue file inodes are embedded in primary parent DAOS object.&amp;nbsp;&lt;/b&gt;&lt;/font&gt;" style="text;html=1;align=left;verticalAlign=middle;whiteSpace=wrap;rounded=0;" vertex="1" parent="1">
          <mxGeometry x="-1620" y="-200" width="570" height="80" as="geometry" />
        </mxCell>
        <mxCell id="FTCC09_lMXSUe1NoiAsB-121" value="" style="shape=flexArrow;endArrow=classic;html=1;rounded=0;fillColor=#99CCFF;" edge="1" parent="1">
          <mxGeometry width="50" height="50" relative="1" as="geometry">
            <mxPoint x="-478.73" y="-570" as="sourcePoint" />
            <mxPoint x="-481.2738596491231" y="10" as="targetPoint" />
          </mxGeometry>
        </mxCell>
        <mxCell id="FTCC09_lMXSUe1NoiAsB-122" value="&lt;font style=&quot;font-size: 19px;&quot;&gt;Regular named &lt;br&gt;lookup for &quot;File1&quot;,&lt;br&gt;&amp;nbsp;while filesystem walk&lt;/font&gt;" style="text;html=1;align=center;verticalAlign=middle;whiteSpace=wrap;rounded=0;" vertex="1" parent="1">
          <mxGeometry x="-530" y="-490" width="290" height="80" as="geometry" />
        </mxCell>
        <mxCell id="FTCC09_lMXSUe1NoiAsB-123" value="" style="shape=flexArrow;endArrow=classic;html=1;rounded=0;fillColor=#99CCFF;" edge="1" parent="1">
          <mxGeometry width="50" height="50" relative="1" as="geometry">
            <mxPoint x="60" y="-600" as="sourcePoint" />
            <mxPoint x="59.996140350876885" y="515" as="targetPoint" />
          </mxGeometry>
        </mxCell>
        <mxCell id="FTCC09_lMXSUe1NoiAsB-124" value="&lt;span style=&quot;font-size: 19px;&quot;&gt;Unnamed Lookup using File handle, which has only Inode number information. These Lookups happen during NFS Clients get the handle and the NFS Server dies off. Then the handel is used to re-hydrate the Inode in NFS Server using just the Inode_number. Please note parent information cannot be kept as it would have been obselete when the unnamed lookup is done&lt;/span&gt;" style="text;html=1;align=center;verticalAlign=middle;whiteSpace=wrap;rounded=0;" vertex="1" parent="1">
          <mxGeometry x="70" y="-470" width="290" height="80" as="geometry" />
        </mxCell>
      </root>
    </mxGraphModel>
  </diagram>
</mxfile>
